<svg id="export-svg" width="100%" xmlns="http://www.w3.org/2000/svg" style="max-width: 1001.3642578125px;" viewBox="-516.68212890625 -267.04461669921875 1001.3642578125 665.0892333984375" role="graphics-document document" aria-roledescription="architecture"><style xmlns="http://www.w3.org/1999/xhtml">p {margin: 0;}</style><style>#export-svg{font-family:arial,sans-serif;font-size:14px;fill:#ccc;}@keyframes edge-animation-frame{from{stroke-dashoffset:0;}}@keyframes dash{to{stroke-dashoffset:0;}}#export-svg .edge-animation-slow{stroke-dasharray:9,5!important;stroke-dashoffset:900;animation:dash 50s linear infinite;stroke-linecap:round;}#export-svg .edge-animation-fast{stroke-dasharray:9,5!important;stroke-dashoffset:900;animation:dash 20s linear infinite;stroke-linecap:round;}#export-svg .error-icon{fill:hsl(20, 1.5873015873%, 12.3529411765%);}#export-svg .error-text{fill:rgb(222.9999999999, 223.6666666666, 223.9999999999);stroke:rgb(222.9999999999, 223.6666666666, 223.9999999999);}#export-svg .edge-thickness-normal{stroke-width:1px;}#export-svg .edge-thickness-thick{stroke-width:3.5px;}#export-svg .edge-pattern-solid{stroke-dasharray:0;}#export-svg .edge-thickness-invisible{stroke-width:0;fill:none;}#export-svg .edge-pattern-dashed{stroke-dasharray:3;}#export-svg .edge-pattern-dotted{stroke-dasharray:2;}#export-svg .marker{fill:#cccccc;stroke:#cccccc;}#export-svg .marker.cross{stroke:#cccccc;}#export-svg svg{font-family:arial,sans-serif;font-size:14px;}#export-svg p{margin:0;}#export-svg .edge{stroke-width:3;stroke:#cccccc;fill:none;}#export-svg .arrow{fill:#cccccc;}#export-svg .node-bkg{fill:none;stroke:#cccccc;stroke-width:2px;stroke-dasharray:8;}#export-svg .node-icon-text{display:flex;align-items:center;}#export-svg .node-icon-text&gt;div{color:#fff;margin:1px;height:fit-content;text-align:center;overflow:hidden;display:-webkit-box;-webkit-box-orient:vertical;}#export-svg .architecture-services,#export-svg .architecture-edges,#export-svg .architecture-groups{font-size:16px;}#export-svg .node .neo-node{stroke:#ccc;}#export-svg [data-look="neo"].node rect,#export-svg [data-look="neo"].cluster rect,#export-svg [data-look="neo"].node polygon{stroke:url(#export-svg-gradient);filter:drop-shadow( 1px 2px 2px rgba(185,185,185,0.2));}#export-svg [data-look="neo"].node path{stroke:url(#export-svg-gradient);stroke-width:1;}#export-svg [data-look="neo"].node .outer-path{filter:drop-shadow( 1px 2px 2px rgba(185,185,185,0.2));}#export-svg [data-look="neo"].node .neo-line path{stroke:#ccc;filter:none;}#export-svg [data-look="neo"].node circle{stroke:url(#export-svg-gradient);filter:drop-shadow( 1px 2px 2px rgba(185,185,185,0.2));}#export-svg [data-look="neo"].node circle .state-start{fill:#000000;}#export-svg [data-look="neo"].statediagram-cluster rect{fill:#2a2020;stroke:url(#export-svg-gradient);stroke-width:1;}#export-svg [data-look="neo"].icon-shape .icon{fill:url(#export-svg-gradient);filter:drop-shadow( 1px 2px 2px rgba(185,185,185,0.2));}#export-svg [data-look="neo"].icon-shape .icon-neo path{stroke:url(#export-svg-gradient);filter:drop-shadow( 1px 2px 2px rgba(185,185,185,0.2));}#export-svg :root{--mermaid-font-family:"trebuchet ms",verdana,arial,sans-serif;}</style><g/><g class="architecture-edges"><g><path d="M -1.8528893496559249,-79.63742290828881 L 55.52569313131751,-112.09101709520823 L112.90427561229095,-144.54461128212765" class="edge" id="L_eb_lam_0"/></g><g><path d="M -290.18211367691686,-144.54461128212765 L -88.63891903231297,-144.54461128212765 L112.90427561229092,-144.54461128212765" class="edge" id="L_nasa_lam_0"/></g><g><path d="M 152.90427561229095,-104.54461128212765 L 152.90427561229095,-43.57852876309724 L152.90427561229095,17.38755375593317" class="edge" id="L_lam_s3_0"/></g><g><path d="M -290.18211367691686,57.387553755933176 L -88.63891903231297,57.387553755933176 L112.90427561229092,57.387553755933176" class="edge" id="L_user_s3_0"/></g><g><path d="M 192.90427561229095,57.387553755933176 L 253.54319464460394,57.387553755933176 L314.18211367691697,57.387553755933176" class="edge" id="L_s3_glue_0"/></g><g><path d="M 152.90427561229095,97.38755375593317 L 152.90427561229095,157.9660825190304 L152.90427561229095,218.54461128212762" class="edge" id="L_s3_athena_0"/></g></g><g class="architecture-services"><g id="service-nasa" class="architecture-service" transform="translate(-370.18211367691686,-184.54461128212765)"><g dy="1em" alignment-baseline="middle" dominant-baseline="middle" text-anchor="middle" transform="translate(40, 80)"><g><rect class="background" style="stroke: none"/><text y="-10.1" style=""><tspan class="text-outer-tspan" x="0" y="-0.1em" dy="1.1em"><tspan font-style="normal" class="text-inner-tspan" font-weight="normal">NASA</tspan><tspan font-style="normal" class="text-inner-tspan" font-weight="normal"> API</tspan></tspan></text></g></g><g><g><svg xmlns="http://www.w3.org/2000/svg" width="80" height="80" viewBox="0 0 80 80"><g><rect width="80" height="80" style="fill: #087ebf; stroke-width: 0px;"/><circle cx="40" cy="40" r="22.5" style="fill: none; stroke: #fff; stroke-miterlimit: 10; stroke-width: 2px;"/><line x1="40" y1="17.5" x2="40" y2="62.5" style="fill: none; stroke: #fff; stroke-miterlimit: 10; stroke-width: 2px;"/><line x1="17.5" y1="40" x2="62.5" y2="40" style="fill: none; stroke: #fff; stroke-miterlimit: 10; stroke-width: 2px;"/><path d="m39.99,17.51c-15.28,11.1-15.28,33.88,0,44.98" style="fill: none; stroke: #fff; stroke-miterlimit: 10; stroke-width: 2px;"/><path d="m40.01,17.51c15.28,11.1,15.28,33.88,0,44.98" style="fill: none; stroke: #fff; stroke-miterlimit: 10; stroke-width: 2px;"/><line x1="19.75" y1="30.1" x2="60.25" y2="30.1" style="fill: none; stroke: #fff; stroke-miterlimit: 10; stroke-width: 2px;"/><line x1="19.75" y1="49.9" x2="60.25" y2="49.9" style="fill: none; stroke: #fff; stroke-miterlimit: 10; stroke-width: 2px;"/></g></svg></g></g></g><g id="service-user" class="architecture-service" transform="translate(-370.18211367691686,17.387553755933176)"><g dy="1em" alignment-baseline="middle" dominant-baseline="middle" text-anchor="middle" transform="translate(40, 80)"><g><rect class="background" style="stroke: none"/><text y="-10.1" style=""><tspan class="text-outer-tspan" x="0" y="-0.1em" dy="1.1em"><tspan font-style="normal" class="text-inner-tspan" font-weight="normal">UCS</tspan><tspan font-style="normal" class="text-inner-tspan" font-weight="normal"> Satellite</tspan></tspan><tspan class="text-outer-tspan" x="0" y="1em" dy="1.1em"><tspan font-style="normal" class="text-inner-tspan" font-weight="normal">Database</tspan><tspan font-style="normal" class="text-inner-tspan" font-weight="normal"> CSV</tspan></tspan></text></g></g><g><g><svg xmlns="http://www.w3.org/2000/svg" width="80" height="80" viewBox="0 0 80 80"><g><rect width="80" height="80" style="fill: #087ebf; stroke-width: 0px;"/><circle cx="40" cy="40" r="22.5" style="fill: none; stroke: #fff; stroke-miterlimit: 10; stroke-width: 2px;"/><line x1="40" y1="17.5" x2="40" y2="62.5" style="fill: none; stroke: #fff; stroke-miterlimit: 10; stroke-width: 2px;"/><line x1="17.5" y1="40" x2="62.5" y2="40" style="fill: none; stroke: #fff; stroke-miterlimit: 10; stroke-width: 2px;"/><path d="m39.99,17.51c-15.28,11.1-15.28,33.88,0,44.98" style="fill: none; stroke: #fff; stroke-miterlimit: 10; stroke-width: 2px;"/><path d="m40.01,17.51c15.28,11.1,15.28,33.88,0,44.98" style="fill: none; stroke: #fff; stroke-miterlimit: 10; stroke-width: 2px;"/><line x1="19.75" y1="30.1" x2="60.25" y2="30.1" style="fill: none; stroke: #fff; stroke-miterlimit: 10; stroke-width: 2px;"/><line x1="19.75" y1="49.9" x2="60.25" y2="49.9" style="fill: none; stroke: #fff; stroke-miterlimit: 10; stroke-width: 2px;"/></g></svg></g></g></g><g id="service-eb" class="architecture-service" transform="translate(-81.85288934965592,-119.63742290828881)"><g dy="1em" alignment-baseline="middle" dominant-baseline="middle" text-anchor="middle" transform="translate(40, 80)"><g><rect class="background" style="stroke: none"/><text y="-10.1" style=""><tspan class="text-outer-tspan" x="0" y="-0.1em" dy="1.1em"><tspan font-style="normal" class="text-inner-tspan" font-weight="normal">EventBridge</tspan></tspan></text></g></g><g><g><svg xmlns="http://www.w3.org/2000/svg" width="80" height="80" viewBox="0 0 40 40"><g fill="none" fill-rule="evenodd"><path fill="#E7157B" d="M0 0h40v40H0z"/><path fill="#FFF" d="M11.056 28.594a2.09 2.09 0 01-2.08-2.096 2.09 2.09 0 012.08-2.095c1.146 0 2.08.94 2.08 2.095a2.09 2.09 0 01-2.08 2.096m1.857.363a3.1 3.1 0 001.223-2.459c0-1.711-1.382-3.103-3.08-3.103-.42 0-.817.086-1.181.24l-1.799-3.139 2.362-4.122-.865-.504-2.506 4.375a.5.5 0 000 .503l1.966 3.43a3.1 3.1 0 00-1.056 2.32c0 1.712 1.38 3.104 3.079 3.104.342 0 .665-.07.973-.174l1.531 2.844a.5.5 0 00.44.263h5.5v-1.008h-5.203zM29.944 16.56a2.09 2.09 0 01-2.08-2.096 2.09 2.09 0 012.08-2.096 2.09 2.09 0 012.078 2.096 2.09 2.09 0 01-2.079 2.096m2.023.224a3.1 3.1 0 001.055-2.32c0-1.711-1.38-3.104-3.079-3.104-.34 0-.662.07-.97.173L27.443 8.62A.5.5 0 0027 8.351h-5.5V9.36h5.2l1.39 2.644a3.1 3.1 0 00-1.226 2.462c0 1.71 1.381 3.103 3.08 3.103.42 0 .818-.086 1.18-.24l1.799 3.14-2.362 4.12.866.504 2.505-4.373a.5.5 0 000-.504zm-4.573 16.207a2.09 2.09 0 01-2.08-2.095 2.09 2.09 0 012.08-2.095 2.09 2.09 0 012.079 2.095 2.09 2.09 0 01-2.08 2.095m-9.19-8.491-2.293-4.002 2.292-4h4.584l2.294 4-2.294 4.002zm-4.568-12.303a2.09 2.09 0 01-2.08-2.095 2.09 2.09 0 012.08-2.095c1.146 0 2.08.94 2.08 2.095a2.09 2.09 0 01-2.08 2.095m13.758 15.596a3.04 3.04 0 00-1.692.515l-2.07-3.267 2.46-4.29a.5.5 0 000-.504l-2.582-4.505a.5.5 0 00-.433-.252h-4.752l-2.279-3.481a3.1 3.1 0 00.67-1.907c0-1.711-1.382-3.103-3.08-3.103s-3.08 1.392-3.08 3.103 1.381 3.103 3.08 3.103a3.04 3.04 0 001.668-.502l2.09 3.194-2.492 4.35a.5.5 0 000 .503l2.58 4.506a.5.5 0 00.433.252h4.828l2.218 3.505A3.092 3.092 0 0027.396 34c1.698 0 3.079-1.393 3.079-3.103 0-1.712-1.381-3.103-3.08-3.103"/></g></svg></g></g></g><g id="service-lam" class="architecture-service" transform="translate(112.90427561229095,-184.54461128212765)"><g dy="1em" alignment-baseline="middle" dominant-baseline="middle" text-anchor="middle" transform="translate(40, 80)"><g><rect class="background" style="stroke: none"/><text y="-10.1" style=""><tspan class="text-outer-tspan" x="0" y="-0.1em" dy="1.1em"><tspan font-style="normal" class="text-inner-tspan" font-weight="normal">Lambda</tspan></tspan><tspan class="text-outer-tspan" x="0" y="1em" dy="1.1em"><tspan font-style="normal" class="text-inner-tspan" font-weight="normal">Function</tspan></tspan></text></g></g><g><g><svg xmlns="http://www.w3.org/2000/svg" width="80" height="80" viewBox="0 0 40 40"><g fill="none" fill-rule="evenodd"><path fill="#ED7100" d="M0 0h40v40H0z"/><path fill="#FFF" d="M14.386 33H8.27l6.763-14.426 3.064 6.44zm1.085-15.798a.49.49 0 00-.442-.282h-.002a.49.49 0 00-.441.285l-7.538 16.08a.5.5 0 00.028.482.49.49 0 00.415.233h7.206c.19 0 .363-.111.445-.286l3.944-8.489a.5.5 0 00-.002-.432zM32.018 33h-5.882l-9.47-20.711a.49.49 0 00-.444-.289H12.37l.005-5h7.549l9.424 20.71c.08.177.256.29.446.29h2.224zm.49-6h-2.4L20.684 6.29a.49.49 0 00-.446-.29h-8.353a.496.496 0 00-.491.5l-.006 6a.5.5 0 00.144.354.5.5 0 00.347.146h4.032l9.468 20.711a.49.49 0 00.445.289h6.686a.495.495 0 00.491-.5v-6c0-.276-.219-.5-.491-.5"/></g></svg></g></g></g><g id="service-s3" class="architecture-service" transform="translate(112.90427561229095,17.387553755933176)"><g dy="1em" alignment-baseline="middle" dominant-baseline="middle" text-anchor="middle" transform="translate(40, 80)"><g><rect class="background" style="stroke: none"/><text y="-10.1" style=""><tspan class="text-outer-tspan" x="0" y="-0.1em" dy="1.1em"><tspan font-style="normal" class="text-inner-tspan" font-weight="normal">S3</tspan><tspan font-style="normal" class="text-inner-tspan" font-weight="normal"> Data</tspan><tspan font-style="normal" class="text-inner-tspan" font-weight="normal"> Lake</tspan></tspan></text></g></g><g><g><svg xmlns="http://www.w3.org/2000/svg" width="80" height="80" viewBox="0 0 40 40"><g fill="none" fill-rule="evenodd"><path fill="#7AA116" d="M0 0h40v40H0z"/><path fill="#FFF" d="m30.532 21.391.197-1.459c2.092 1.199 2.135 1.694 2.134 1.708-.004.003-.354.283-2.331-.249m-.968-.288c-2.842-.897-6.66-2.572-8.841-3.599l.004-.02c0-.663-.54-1.203-1.203-1.203s-1.203.54-1.203 1.203c0 .664.54 1.203 1.203 1.203.29 0 .546-.116.754-.287 1.269.594 5.797 2.676 9.15 3.713l-1.179 8.737c0 .866-3.674 2.15-8.749 2.15s-8.749-1.284-8.754-2.216L8.283 12.563C10.458 14.155 15.074 15 19.5 15s9.043-.845 11.218-2.437zM8.003 10.489C8.032 9.609 12.104 7 19.5 7c7.395 0 11.47 2.609 11.5 3.489v.114C30.81 12.231 26.137 14 19.5 14S8.209 12.231 8.018 10.604zM32 10.5C32 8.665 27.131 6 19.5 6S7 8.665 7 10.5v.067L9.751 30.85c0 2.046 5.022 3.15 9.749 3.15 4.726 0 9.749-1.104 9.744-3.083l1.152-8.527c.821.214 1.485.328 1.996.328.593 0 .994-.144 1.236-.433a.98.98 0 00.217-.831c-.137-.738-1.048-1.535-2.955-2.584l-.021.026L32 10.567z"/></g></svg></g></g></g><g id="service-glue" class="architecture-service" transform="translate(314.18211367691697,17.387553755933176)"><g dy="1em" alignment-baseline="middle" dominant-baseline="middle" text-anchor="middle" transform="translate(40, 80)"><g><rect class="background" style="stroke: none"/><text y="-10.1" style=""><tspan class="text-outer-tspan" x="0" y="-0.1em" dy="1.1em"><tspan font-style="normal" class="text-inner-tspan" font-weight="normal">Glue</tspan><tspan font-style="normal" class="text-inner-tspan" font-weight="normal"> Crawler</tspan></tspan></text></g></g><g><g><svg xmlns="http://www.w3.org/2000/svg" width="80" height="80" viewBox="0 0 40 40"><g fill="none" fill-rule="evenodd"><path fill="#8C4FFF" d="M0 0h40v40H0z"/><path fill="#FFF" d="M27.163 15.543c-1.839.412-4.673.495-6.663.495-1.977 0-4.785-.082-6.625-.486l5.539 8.197a.5.5 0 01.086.281v1.068c.701.202 1.349.205 2 .007V24.03c0-.1.03-.2.087-.282zm1.69-.771.03.02-6.383 9.392v1.276a.5.5 0 01-.314.464 4.4 4.4 0 01-1.653.329 4.9 4.9 0 01-1.706-.324.5.5 0 01-.327-.47v-1.275l-6.395-9.465A.57.57 0 0112 14.41c0-1.425 4.692-1.689 7.488-1.72l.012 1.002c-3.343.036-5.421.41-6.212.7.943.309 3.533.644 7.212.644 3.45 0 5.943-.295 7.017-.587-.5-.133-1.416-.315-3.078-.519l.121-.994c4.122.503 4.44.928 4.44 1.474 0 .131-.06.25-.147.362M16.5 11.008h1v-1.001h-1zm-1 .501V9.506a.5.5 0 01.5-.501h2a.5.5 0 01.5.5v2.004a.5.5 0 01-.5.501h-2a.5.5 0 01-.5-.5m5-3.506h1V7.002h-1zm-1 .501V6.501A.5.5 0 0120 6h2a.5.5 0 01.5.5v2.004a.5.5 0 01-.5.501h-2a.5.5 0 01-.5-.5m2 4.508h1V12.01h-1zm-.5-2.004h2a.5.5 0 01.5.501v2.004a.5.5 0 01-.5.5h-2a.5.5 0 01-.5-.5V11.51a.5.5 0 01.5-.5m3.424 18.325a.5.5 0 01-.079.536l-3.469 3.96a.5.5 0 01-.752 0l-3.469-3.96a.5.5 0 01.376-.83h1.453v-1.002h1v1.503a.5.5 0 01-.5.5h-.849L20.5 32.74l2.365-2.699H22a.5.5 0 01-.5-.5v-1.503h1v1.002h1.469c.196 0 .374.114.455.294"/></g></svg></g></g></g><g id="service-athena" class="architecture-service" transform="translate(112.90427561229095,218.54461128212762)"><g dy="1em" alignment-baseline="middle" dominant-baseline="middle" text-anchor="middle" transform="translate(40, 80)"><g><rect class="background" style="stroke: none"/><text y="-10.1" style=""><tspan class="text-outer-tspan" x="0" y="-0.1em" dy="1.1em"><tspan font-style="normal" class="text-inner-tspan" font-weight="normal">Amazon</tspan><tspan font-style="normal" class="text-inner-tspan" font-weight="normal"> Athena</tspan></tspan></text></g></g><g><g><svg xmlns="http://www.w3.org/2000/svg" width="80" height="80" viewBox="0 0 40 40"><g fill="none" fill-rule="evenodd"><path fill="#8C4FFF" d="M0 0h40v40H0z"/><path fill="#FFF" d="M18.726 14.285c1.8 0 2.982.285 3.42.5-.438.214-1.62.498-3.42.498s-2.982-.284-3.42-.499c.438-.214 1.62-.499 3.42-.499m.014 3.198c-.088-.027-.164-.079-.164-.181 0-.14.114-.253.256-.253.042 0 .072.026.107.043zm2.939 4.156a1.2 1.2 0 01-.303.156 4 4 0 01-.566.166 9.3 9.3 0 01-1.978.202c-1.542 0-2.616-.322-2.846-.522l-.688-5.794c1.187.401 2.937.433 3.428.433.496 0 2.275-.033 3.464-.445l-.202 2.298a35 35 0 01-2.44-1.048.754.754 0 00-1.475.216.753.753 0 001.041.69c1.178.56 2.09.944 2.781 1.186zm-7.525-6.797.822 6.891c0 1.411 3.698 1.427 3.856 1.427.78 0 1.564-.08 2.206-.226q.404-.092.71-.212c.624-.241.94-.574.938-.946l.204-2.305c.299.068.534.098.715.098.478 0 .604-.189.69-.319l.077-.476c-.122-.492-1-1.187-1.297-1.404l.224-2.543-.005-.001c.001-.014.007-.027.007-.042 0-1.424-3.811-1.496-4.575-1.496s-4.575.072-4.575 1.496c0 .02.008.037.01.057zm4.591-5.448c4.765 0 8.643 3.803 8.643 8.478s-3.878 8.478-8.643 8.478-8.642-3.803-8.642-8.478 3.877-8.478 8.642-8.478M6.017 21.267v.998h4.177a9.69 9.69 0 008.551 5.082c5.326 0 9.66-4.25 9.66-9.475s-4.334-9.475-9.66-9.475c-4.41 0-8.132 2.917-9.283 6.886H6.017v.997h3.217a9 9 0 00-.148 1.592c0 .136.015.268.02.403H5v.997h4.203q.159 1.041.535 1.995zm27.486 11.265c-.614.603-1.68.608-2.295.005l-5.253-5.152a12 12 0 002.34-2.246l5.214 5.142a1.566 1.566 0 01-.006 2.25m.726-2.955-5.334-5.26a11.64 11.64 0 001.953-6.445C30.848 11.326 25.418 6 18.745 6 13.95 6 9.6 8.782 7.665 13.087l.93.402c1.773-3.943 5.757-6.492 10.15-6.492 6.112 0 11.086 4.879 11.086 10.875s-4.974 10.876-11.086 10.876c-3.732 0-7.192-1.827-9.254-4.885l-.848.551c2.251 3.338 6.027 5.331 10.102 5.331 2.333 0 4.506-.662 6.356-1.788l5.388 5.286a2.64 2.64 0 001.86.757 2.66 2.66 0 001.872-.761 2.55 2.55 0 00.008-3.662"/></g></svg></g></g></g></g><g class="architecture-groups"><rect id="group-public" x="-476.68211367691686" y="-227.04461128212768" width="293" height="383.9321650380608" class="node-bkg"/><g><g transform="translate(-475.68211367691686, -226.04461128212768)"><g><svg xmlns="http://www.w3.org/2000/svg" width="30" height="30" viewBox="0 0 80 80"><g><rect width="80" height="80" style="fill: #087ebf; stroke-width: 0px;"/><path d="m65,47.5c0,2.76-2.24,5-5,5H20c-2.76,0-5-2.24-5-5,0-1.87,1.03-3.51,2.56-4.36-.04-.21-.06-.42-.06-.64,0-2.6,2.48-4.74,5.65-4.97,1.65-4.51,6.34-7.76,11.85-7.76.86,0,1.69.08,2.5.23,2.09-1.57,4.69-2.5,7.5-2.5,6.1,0,11.19,4.38,12.28,10.17,2.14.56,3.72,2.51,3.72,4.83,0,.03,0,.07-.01.1,2.29.46,4.01,2.48,4.01,4.9Z" style="fill: none; stroke: #fff; stroke-miterlimit: 10; stroke-width: 2px;"/></g></svg></g></g><g dy="1em" alignment-baseline="middle" dominant-baseline="start" text-anchor="start" transform="translate(-442.68211367691686, -220.04461128212768)"><g><rect class="background" style="stroke: none"/><text y="-10.1" style=""><tspan class="text-outer-tspan" x="0" y="-0.1em" dy="1.1em"><tspan font-style="normal" class="text-inner-tspan" font-weight="normal">External</tspan><tspan font-style="normal" class="text-inner-tspan" font-weight="normal"> Sources</tspan></tspan></text></g></g></g><rect id="group-aws" x="-129.35288934965592" y="-227.04461128212762" width="574.0350030265729" height="585.0892225642552" class="node-bkg"/><g><g transform="translate(-128.35288934965592, -226.04461128212762)"><g><svg xmlns="http://www.w3.org/2000/svg" width="30" height="30" viewBox="0 0 40 40"><g fill="none" fill-rule="evenodd"><path fill="#242F3E" d="M0 0h40v40H0z"/><path fill="#FFF" d="m28.993 27.995-17.506-.019c-2.366-.002-4.333-1.847-4.475-4.2a6 6 0 01-.012-.38c0-3.098 2.091-4.11 3.337-4.438a.5.5 0 00.37-.54 7 7 0 01-.048-.823c0-2.464 1.649-5.114 3.756-6.033.944-.413 1.817-.577 2.608-.577 2.253 0 3.844 1.33 4.538 2.047.768.793 1.366 1.805 1.779 3.01a.498.498 0 00.879.128c.588-.82 1.547-1.189 2.44-.932 1.123.321 1.857 1.488 1.961 3.068a.5.5 0 00.407.57C30.222 19.09 33 19.957 33 23.44c0 4.15-3.886 4.542-4.007 4.555m.601-10.02c-.215-1.908-1.194-3.279-2.66-3.697-1.035-.296-2.123-.033-2.945.672-.436-1.014-1.01-1.89-1.709-2.612-2.257-2.333-5.347-2.966-8.266-1.692-2.483 1.084-4.355 4.072-4.355 6.95q0 .261.017.518C8.319 18.574 6 19.875 6 23.397q0 .229.014.441c.174 2.878 2.579 5.135 5.472 5.138l17.548.017C29.084 28.99 34 28.52 34 23.44c0-3.938-2.997-5.126-4.406-5.466"/></g></svg></g></g><g dy="1em" alignment-baseline="middle" dominant-baseline="start" text-anchor="start" transform="translate(-95.35288934965592, -220.04461128212762)"><g><rect class="background" style="stroke: none"/><text y="-10.1" style=""><tspan class="text-outer-tspan" x="0" y="-0.1em" dy="1.1em"><tspan font-style="normal" class="text-inner-tspan" font-weight="normal">AWS</tspan><tspan font-style="normal" class="text-inner-tspan" font-weight="normal"> Cloud</tspan><tspan font-style="normal" class="text-inner-tspan" font-weight="normal"> Environment</tspan></tspan></text></g></g></g></g></svg>